<svg version="1.2" xmlns="http://www.w3.org/2000/svg" viewBox="0 0 1195 547" width="771" height="125">
	<defs>
		<linearGradient id="g1" x2="1" gradientUnits="userSpaceOnUse" gradientTransform="matrix(0,-183.594,167.748,0,737.494,368.227)">
			<stop offset=".03" stop-color="#a91d51"/>
			<stop offset=".42" stop-color="#e81977"/>
			<stop offset=".54" stop-color="#e81977"/>
			<stop offset="1" stop-color="#ee5197"/>
		</linearGradient>
	</defs>
	<style>
		.s0 { fill: #363935 } 
		.s1 { fill: #e81976 } 
		.s2 { fill: url(#g1) } 
		.s3 { fill: #f07eb2 } 
	</style>
	<g id="Layer 1">
		<g id="&lt;Group&gt;">
			<g id="&lt;Group&gt;">
				<path id="&lt;Compound Path&gt;" fill-rule="evenodd" class="s0" d="m22.4 402.78v34.03h-5.35v-34.03z"/>
				<path id="&lt;Compound Path&gt;" class="s0" d="m30.95 436.81v-34.03h5.01l8.62 15.96c1.94 3.68 4.38 8.17 5.98 11.86h0.14c-0.42-5.35-0.63-9.74-0.63-15.65v-12.17h4.8v34.03h-5.01l-8.9-16.36c-1.95-3.43-3.96-7.32-5.63-11.56h-0.14c0.42 4.54 0.56 8.89 0.56 16.16v11.76z"/>
				<path id="&lt;Compound Path&gt;" class="s0" d="m62.17 432.32c1.53 0.75 4.38 1.36 6.67 1.36 4.94 0 7.86-2.32 7.86-5.76 0-3.13-2.51-5.05-6.19-7.06-3.75-1.87-8.83-5.05-8.83-9.45 0-5.15 4.94-8.93 12.38-8.93 2.92 0 5.42 0.65 6.53 1.26l-1.25 3.33c-1.18-0.6-3.13-1.16-5.56-1.16-4.66 0-6.82 2.53-6.82 4.85 0 3.38 2.44 4.69 6.89 7.02 5.63 2.87 8.13 6 8.13 9.79 0 5.86-5.63 9.54-13.14 9.54-3.2 0-6.53-0.75-7.86-1.46z"/>
				<path id="&lt;Compound Path&gt;" class="s0" d="m93.8 406.26h-8.55v-3.48h22.45v3.48h-8.55v30.55h-5.35z"/>
				<path id="&lt;Compound Path&gt;" fill-rule="evenodd" class="s0" d="m118.27 402.78v34.03h-5.35v-34.03z"/>
				<path id="&lt;Compound Path&gt;" class="s0" d="m132.25 406.26h-8.56v-3.48h22.46v3.48h-8.55v30.55h-5.35z"/>
				<path id="&lt;Compound Path&gt;" class="s0" d="m156.65 402.78v22.82c0 6.11 2.85 8.18 6.32 8.18 3.97 0 6.54-2.22 6.54-8.18v-22.82h5.35v22.22c0 8.83-5 12.21-11.95 12.21-7.03 0-11.62-3.33-11.62-11.76v-22.67z"/>
				<path id="&lt;Compound Path&gt;" class="s0" d="m188.63 406.26h-8.55v-3.48h22.45v3.48h-8.55v30.55h-5.35z"/>
				<path id="&lt;Compound Path&gt;" fill-rule="evenodd" class="s0" d="m230.13 419.54c0 12.78-5.98 17.67-13.55 17.67-7.79 0-13.01-6-13.01-17.46 0-11.26 5.64-17.37 13.77-17.37 8 0 12.79 6.31 12.79 17.16zm-20.99 0.25c0 7.02 1.87 13.99 7.85 13.99 5.98 0 7.58-7.42 7.58-14.09 0-6.36-1.6-13.88-7.65-13.88-5.91 0-7.78 7.07-7.78 13.98z"/>
				<path id="&lt;Compound Path&gt;" fill-rule="evenodd" class="s0" d="m247.51 403.28c2.02-0.45 4.52-0.65 7.16-0.65 4.94 0 8.42 0.91 10.99 2.57 3.62 2.28 6.33 6.67 6.33 13.79 0 7.77-2.64 12.01-5.63 14.39-3.06 2.47-7.51 3.63-12.94 3.63-2.15 0-4.38-0.1-5.91-0.35zm5.29 30.39c0.76 0.11 1.53 0.11 2.01 0.11 5.91 0 11.62-3.14 11.62-14.7 0-8.58-3.62-13.28-11.13-13.28-0.83 0-1.81 0.06-2.5 0.21z"/>
				<path id="&lt;Compound Path&gt;" class="s0" d="m295.49 420.65h-11.76v12.78h13.35v3.38h-18.7v-34.03h17.87v3.38h-12.52v11.21h11.76z"/>
				<path id="&lt;Compound Path&gt;" class="s0" d="m331.01 420.65h-11.75v12.78h13.35v3.38h-18.7v-34.03h17.87v3.38h-12.52v11.21h11.75z"/>
				<path id="&lt;Compound Path&gt;" class="s0" d="m338.52 402.78h5.35v30.75h13.14v3.28h-18.49z"/>
				<path id="&lt;Compound Path&gt;" class="s0" d="m379.54 420.65h-11.75v12.78h13.35v3.38h-18.71v-34.03h17.87v3.38h-12.51v11.21h11.75z"/>
				<path id="&lt;Compound Path&gt;" class="s0" d="m407.55 436.2c-1.46 0.56-3.82 0.91-6.74 0.91-9.11 0-15.71-5.35-15.71-16.91 0-13.43 9.17-17.72 16.62-17.72 2.78 0 4.86 0.4 5.77 0.86l-1.19 3.28c-1.11-0.36-2.22-0.71-4.66-0.71-5 0-10.91 3.53-10.91 13.94 0 10.4 5.28 13.83 11.05 13.83 2.02 0 3.76-0.35 4.87-0.71z"/>
				<path id="&lt;Compound Path&gt;" class="s0" d="m432.3 436.2c-1.46 0.56-3.82 0.91-6.74 0.91-9.11 0-15.71-5.35-15.71-16.91 0-13.43 9.17-17.72 16.62-17.72 2.78 0 4.86 0.4 5.77 0.86l-1.19 3.28c-1.11-0.36-2.22-0.71-4.66-0.71-5 0-10.91 3.53-10.91 13.94 0 10.4 5.28 13.83 11.05 13.83 2.02 0 3.76-0.35 4.87-0.71z"/>
				<path id="&lt;Compound Path&gt;" fill-rule="evenodd" class="s0" d="m443.08 402.78v34.03h-5.35v-34.03z"/>
				<path id="&lt;Compound Path&gt;" fill-rule="evenodd" class="s0" d="m476.17 419.54c0 12.78-5.98 17.67-13.55 17.67-7.79 0-13.01-6-13.01-17.46 0-11.26 5.64-17.37 13.77-17.37 8 0 12.79 6.31 12.79 17.16zm-20.99 0.25c0 7.02 1.87 13.99 7.85 13.99 5.98 0 7.58-7.42 7.58-14.09 0-6.36-1.6-13.88-7.65-13.88-5.91 0-7.78 7.07-7.78 13.98z"/>
				<path id="&lt;Compound Path&gt;" class="s0" d="m482.64 436.81v-34.03h5l8.63 15.96c1.94 3.68 4.38 8.17 5.98 11.86h0.14c-0.42-5.35-0.63-9.74-0.63-15.65v-12.17h4.8v34.03h-5.01l-8.9-16.36c-1.94-3.43-3.96-7.32-5.63-11.56h-0.14c0.42 4.54 0.56 8.89 0.56 16.16v11.76z"/>
				<path id="&lt;Compound Path&gt;" class="s0" d="m532 420.65h-11.75v12.78h13.35v3.38h-18.7v-34.03h17.87v3.38h-12.52v11.21h11.75z"/>
				<path id="&lt;Compound Path&gt;" class="s0" d="m538.47 432.32c1.52 0.75 4.38 1.36 6.67 1.36 4.94 0 7.86-2.32 7.86-5.76 0-3.13-2.51-5.05-6.19-7.06-3.76-1.87-8.83-5.05-8.83-9.45 0-5.15 4.94-8.93 12.37-8.93 2.92 0 5.43 0.65 6.54 1.26l-1.25 3.33c-1.18-0.6-3.13-1.16-5.56-1.16-4.66 0-6.82 2.53-6.82 4.85 0 3.38 2.44 4.69 6.88 7.02 5.64 2.87 8.14 6 8.14 9.79 0 5.86-5.63 9.54-13.14 9.54-3.2 0-6.54-0.75-7.86-1.46z"/>
				<path id="&lt;Compound Path&gt;" class="s0" d="m579.91 436.81v-14.39l-10.36-19.64h5.7l4.17 8.53c1.11 2.38 2.43 5.05 3.48 7.68h0.14c0.9-2.63 2.15-5.2 3.4-7.83l3.96-8.38h5.57l-10.71 19.49v14.54z"/>
				<path id="&lt;Compound Path&gt;" fill-rule="evenodd" class="s0" d="m611.47 403.28c2.15-0.4 4.66-0.65 7.72-0.65 4.31 0 7.99 0.76 10.42 2.47 2.23 1.62 3.41 4.09 3.41 7.07 0 3.13-1.04 5.25-2.85 6.97-2.5 2.52-6.88 3.79-11.05 3.79-0.91 0-1.6 0-2.37-0.06v13.94h-5.28zm5.28 16.36c0.63 0.05 1.26 0.1 2.16 0.1 5.21 0 8.76-2.47 8.76-7.32 0-3.48-1.95-6.61-7.93-6.61-1.25 0-2.29 0.1-2.99 0.25z"/>
				<path id="&lt;Compound Path&gt;" fill-rule="evenodd" class="s0" d="m640.81 426.61l-3.06 10.2h-5.22l10.71-34.03h5.91l10.43 34.03h-5.28l-3.06-10.2zm9.66-3.13l-2.43-8.63c-0.7-2.43-1.32-5.25-1.88-7.78h-0.21c-0.55 2.58-1.25 5.51-1.94 7.78l-2.44 8.63z"/>
				<path id="&lt;Compound Path&gt;" fill-rule="evenodd" class="s0" d="m665.49 403.28c2.23-0.45 5.01-0.65 7.65-0.65 4.66 0 8.13 0.71 10.57 2.42 2.29 1.72 3.26 3.99 3.26 6.67 0 4.34-2.78 7.17-7.5 8.78v0.1c3.47 0.76 5.28 3.18 6.25 7.63q1.67 6.98 2.72 8.58h-5.43c-0.69-1.01-1.6-4.24-2.5-8.38-1.04-4.7-3.06-6.41-7.65-6.41h-2.09v14.79h-5.28zm5.28 15.7h2.3c5.08 0 8.48-2.72 8.48-6.81 0-3.94-2.22-6.36-7.93-6.42-1.11 0-2.15 0.06-2.85 0.21z"/>
				<path id="&lt;Compound Path&gt;" class="s0" d="m698.59 406.26h-8.55v-3.48h22.45v3.48h-8.55v30.55h-5.35z"/>
				<path id="&lt;Compound Path&gt;" fill-rule="evenodd" class="s0" d="m723.06 402.78v34.03h-5.35v-34.03z"/>
				<path id="&lt;Compound Path&gt;" class="s0" d="m752.05 436.2c-1.46 0.56-3.82 0.91-6.74 0.91-9.11 0-15.72-5.35-15.72-16.91 0-13.43 9.18-17.72 16.62-17.72 2.78 0 4.87 0.4 5.77 0.86l-1.18 3.28c-1.11-0.36-2.22-0.71-4.66-0.71-5 0-10.91 3.53-10.91 13.94 0 10.4 5.28 13.83 11.05 13.83 2.02 0 3.75-0.35 4.87-0.71z"/>
				<path id="&lt;Compound Path&gt;" fill-rule="evenodd" class="s0" d="m762.83 402.78v34.03h-5.36v-34.03z"/>
				<path id="&lt;Compound Path&gt;" fill-rule="evenodd" class="s0" d="m771.38 403.28c2.15-0.4 4.66-0.65 7.71-0.65 4.32 0 8 0.76 10.43 2.47 2.23 1.62 3.41 4.09 3.41 7.07 0 3.13-1.04 5.25-2.85 6.97-2.5 2.52-6.88 3.79-11.05 3.79-0.91 0-1.6 0-2.37-0.06v13.94h-5.28zm5.28 16.36c0.63 0.05 1.25 0.1 2.16 0.1 5.21 0 8.76-2.47 8.76-7.32 0-3.48-1.95-6.61-7.93-6.61-1.25 0-2.29 0.1-2.99 0.25z"/>
				<path id="&lt;Compound Path&gt;" fill-rule="evenodd" class="s0" d="m800.72 426.61l-3.06 10.2h-5.22l10.71-34.03h5.91l10.43 34.03h-5.29l-3.05-10.2zm9.66-3.13l-2.43-8.63c-0.7-2.43-1.33-5.25-1.88-7.78h-0.21c-0.56 2.58-1.25 5.51-1.94 7.78l-2.44 8.63z"/>
				<path id="&lt;Compound Path&gt;" class="s0" d="m844.45 436.2c-1.46 0.56-3.83 0.91-6.75 0.91-9.1 0-15.71-5.35-15.71-16.91 0-13.43 9.18-17.72 16.62-17.72 2.78 0 4.86 0.4 5.77 0.86l-1.18 3.28c-1.11-0.36-2.23-0.71-4.66-0.71-5.01 0-10.92 3.53-10.92 13.94 0 10.4 5.29 13.83 11.06 13.83 2.02 0 3.75-0.35 4.87-0.71z"/>
				<path id="&lt;Compound Path&gt;" fill-rule="evenodd" class="s0" d="m855.22 402.78v34.03h-5.35v-34.03z"/>
				<path id="&lt;Compound Path&gt;" fill-rule="evenodd" class="s0" d="m888.32 419.54c0 12.78-5.98 17.67-13.56 17.67-7.79 0-13-6-13-17.46 0-11.26 5.63-17.37 13.76-17.37 8 0 12.8 6.31 12.8 17.16zm-21 0.25c0 7.02 1.88 13.99 7.86 13.99 5.98 0 7.58-7.42 7.58-14.09 0-6.36-1.6-13.88-7.65-13.88-5.91 0-7.79 7.07-7.79 13.98zm17.24-24.28l-8.62 5.45h-4.24l6.54-5.45z"/>
				<path id="&lt;Compound Path&gt;" class="s0" d="m894.78 436.81v-34.03h5.01l8.62 15.96c1.95 3.68 4.38 8.17 5.98 11.86h0.14c-0.42-5.35-0.63-9.74-0.63-15.65v-12.17h4.8v34.03h-5.01l-8.9-16.36c-1.94-3.43-3.96-7.32-5.63-11.56h-0.14c0.42 4.54 0.56 8.89 0.56 16.16v11.76z"/>
				<path id="&lt;Compound Path&gt;" class="s0" d="m958.47 436.2c-1.46 0.56-3.83 0.91-6.75 0.91-9.1 0-15.71-5.35-15.71-16.91 0-13.43 9.18-17.72 16.62-17.72 2.78 0 4.86 0.4 5.77 0.86l-1.18 3.28c-1.11-0.36-2.23-0.71-4.66-0.71-5.01 0-10.92 3.53-10.92 13.94 0 10.4 5.29 13.83 11.06 13.83 2.01 0 3.75-0.35 4.86-0.71z"/>
				<path id="&lt;Compound Path&gt;" fill-rule="evenodd" class="s0" d="m969.24 402.78v34.03h-5.35v-34.03z"/>
				<path id="&lt;Compound Path&gt;" class="s0" d="m983.01 402.78v22.82c0 6.11 2.85 8.18 6.33 8.18 3.96 0 6.53-2.22 6.53-8.18v-22.82h5.36v22.22c0 8.83-5.01 12.21-11.96 12.21-7.03 0-11.61-3.33-11.61-11.76v-22.67z"/>
				<path id="&lt;Compound Path&gt;" fill-rule="evenodd" class="s0" d="m1009.57 403.28c2.01-0.45 4.52-0.65 7.16-0.65 4.93 0 8.41 0.91 10.98 2.57 3.62 2.28 6.33 6.67 6.33 13.79 0 7.77-2.64 12.01-5.63 14.39-3.06 2.47-7.51 3.63-12.94 3.63-2.15 0-4.38-0.1-5.9-0.35zm5.28 30.39c0.76 0.11 1.53 0.11 2.02 0.11 5.91 0 11.61-3.14 11.61-14.7 0-8.58-3.62-13.28-11.13-13.28-0.83 0-1.81 0.06-2.5 0.21z"/>
				<path id="&lt;Compound Path&gt;" fill-rule="evenodd" class="s0" d="m1044.68 426.61l-3.06 10.2h-5.22l10.71-34.03h5.91l10.43 34.03h-5.29l-3.05-10.2zm9.66-3.13l-2.43-8.63c-0.7-2.43-1.33-5.25-1.88-7.78h-0.21c-0.56 2.58-1.25 5.51-1.95 7.78l-2.43 8.63z"/>
				<path id="&lt;Compound Path&gt;" fill-rule="evenodd" class="s0" d="m1069.36 403.28c2.02-0.45 4.52-0.65 7.16-0.65 4.94 0 8.41 0.91 10.98 2.57 3.62 2.28 6.33 6.67 6.33 13.79 0 7.77-2.64 12.01-5.63 14.39-3.06 2.47-7.51 3.63-12.93 3.63-2.16 0-4.38-0.1-5.91-0.35zm5.28 30.39c0.77 0.11 1.53 0.11 2.02 0.11 5.91 0 11.61-3.14 11.61-14.7 0-8.58-3.62-13.28-11.12-13.28-0.84 0-1.81 0.06-2.51 0.21z"/>
				<path id="&lt;Compound Path&gt;" fill-rule="evenodd" class="s0" d="m1104.47 426.61l-3.06 10.2h-5.21l10.7-34.03h5.91l10.43 34.03h-5.28l-3.06-10.2zm9.66-3.13l-2.43-8.63c-0.69-2.43-1.32-5.25-1.88-7.78h-0.21c-0.55 2.58-1.25 5.51-1.94 7.78l-2.44 8.63z"/>
				<path id="&lt;Compound Path&gt;" class="s0" d="m1129.15 436.81v-34.03h5.01l8.62 15.96c1.95 3.68 4.38 8.17 5.98 11.86h0.14c-0.42-5.35-0.63-9.74-0.63-15.65v-12.17h4.8v34.03h-5.01l-8.9-16.36c-1.94-3.43-3.96-7.32-5.63-11.56h-0.14c0.42 4.54 0.56 8.89 0.56 16.16v11.76z"/>
				<path id="&lt;Compound Path&gt;" fill-rule="evenodd" class="s0" d="m1167.04 426.61l-3.06 10.2h-5.21l10.71-34.03h5.91l10.43 34.03h-5.29l-3.06-10.2zm9.66-3.13l-2.43-8.63c-0.69-2.43-1.32-5.25-1.87-7.78h-0.21c-0.56 2.58-1.26 5.51-1.95 7.78l-2.43 8.63z"/>
			</g>
			<g id="&lt;Group&gt;">
				<path id="&lt;Compound Path&gt;" class="s1" d="m855.54 485.82c-1.39 0.51-3.82 0.86-6.88 0.86-10.71 0-16.83-6.36-16.83-16.86 0-13.08 9.53-17.77 17.87-17.77 3.06 0 5.15 0.45 6.12 0.85l-1.39 4.55c-1.11-0.36-2.23-0.66-4.45-0.66-5.08 0-10.29 3.38-10.29 12.67 0 9.14 4.73 12.42 10.36 12.42 1.74 0 3.47-0.25 4.59-0.6z"/>
				<path id="&lt;Compound Path&gt;" class="s1" d="m881.61 452.35v14.08h11.12v-14.08h7.44v34.03h-7.44v-15h-11.12v15h-7.44v-34.03z"/>
				<path id="&lt;Compound Path&gt;" fill-rule="evenodd" class="s1" d="m929.23 452.35v34.03h-7.43v-34.03z"/>
				<path id="&lt;Compound Path&gt;" fill-rule="evenodd" class="s1" d="m957.53 477.49l-2.5 8.89h-7.23l10.42-34.03h8.7l9.66 34.03h-7.23l-2.5-8.89zm8.55-4.19l-1.95-7.83c-0.55-2.22-1.18-5.35-1.74-7.72h-0.21c-0.48 2.37-1.18 5.61-1.73 7.72l-2.09 7.83z"/>
				<path id="&lt;Compound Path&gt;" fill-rule="evenodd" class="s1" d="m995.49 452.85c2.43-0.4 5.42-0.65 8.76-0.65 4.94 0 8.9 0.65 11.68 2.57 2.5 1.72 3.76 4.34 3.76 7.27 0 3.43-1.33 5.81-3.48 7.62-2.78 2.38-7.3 3.49-11.26 3.49-0.77 0-1.4 0-2.09 0v13.23h-7.37zm7.37 15.85c0.56 0.1 1.11 0.1 1.81 0.1 4.86 0 7.57-2.42 7.57-6.36 0-3.18-1.8-5.86-6.81-5.86-0.97 0-1.94 0.11-2.57 0.26z"/>
				<path id="&lt;Compound Path&gt;" fill-rule="evenodd" class="s1" d="m1042.14 477.49l-2.5 8.89h-7.23l10.43-34.03h8.69l9.66 34.03h-7.23l-2.5-8.89zm8.55-4.19l-1.95-7.83c-0.55-2.22-1.18-5.35-1.74-7.72h-0.21c-0.48 2.37-1.18 5.61-1.73 7.72l-2.09 7.83z"/>
				<path id="&lt;Compound Path&gt;" class="s1" d="m1079.06 480.62c1.73 0.76 4.8 1.36 7.23 1.36 4.59 0 7.09-1.97 7.09-4.74 0-2.73-2.29-4.29-6.12-6.21-5.21-2.43-8.83-5.81-8.83-9.49 0-5.3 4.94-9.49 13.7-9.49 2.99 0 5.77 0.65 7.02 1.21l-1.39 4.64c-1.25-0.6-3.27-1.16-5.77-1.16-4.24 0-6.26 2.07-6.26 4.14 0 2.63 1.88 3.84 6.68 6.06 5.91 2.83 8.27 6.11 8.27 9.74 0 6.11-5.98 10-14.39 10-3.55 0-7.02-0.71-8.48-1.41z"/>
			</g>
			<path id="&lt;Path&gt;" class="s2" d="m925.25 375.63h85.03c0 0-8.04-31.43-8.81-52.57 0 0 11.11-16.69 13.41-28.37 2.3-11.68 2.3-28.65 5.36-37.83 3.07-9.17 13.02-37.95 14.56-41.44 3.06-6.95-8.81-11.68-13.41-4.45-4.6 7.23-17.62 31.15-19.92 34.49-3.83 6.68-7.56 5.54-6.12-2.23 5.36-28.92 7.27-46.44 5.74-51.45 1.15-9.18-17.24-13.07-18.77-2.78-1.53 10.29-6.51 35.32-8.42 41.16-1.92 5.84-6.13 13.91-8.81 3.62-2.68-10.29-6.38-40.04-6.9-47.29-1.15-16.13-20.3-10.01-20.3-1.94 0 8.06 2.68 47.84 2.68 52.29 0 4.45-3.06 11.4-8.81 2.78-5.74-8.62-19.53-31.43-23.36-36.44-3.45-7.51-19.15-7.23-16.85 2.23 2.29 9.45 8.81 30.87 12.64 37.82 3.83 6.96 7.27 24.2 4.21 26.15-3.07 1.95-11.88 2.23-18-0.56-6.13-2.78-16.86-10.29-22.6-10.01-5.75 0.28-14.17 2.5-14.56 4.45 0 0-0.38 2.23 9.2 8.07 9.57 5.84 19.15 12.24 24.13 16.69 4.98 4.45 26.42 24.47 34.47 29.48 8.04 5 11.11 28.37 10.34 34.77-0.77 6.39-6.13 23.36-6.13 23.36z"/>
			<g id="&lt;Group&gt;">
				<path id="&lt;Compound Path&gt;" fill-rule="evenodd" class="s0" d="m84.75 195.42v180.09h-67.77v-180.09z"/>
				<path id="&lt;Compound Path&gt;" class="s0" d="m107.1 375.51v-180.09h157.88v49.22h-90.12v16.22h67.41v49.21h-67.41v16.23h90.12v49.21z"/>
				<path id="&lt;Compound Path&gt;" fill-rule="evenodd" class="s0" d="m411.33 326.3h-56.23v49.21h-67.77v-180.09h124c18.39 0 33.89 11.26 33.89 24.61v81.93c0 13.35-15.5 24.34-33.89 24.34zm-56.23-81.66v32.71h22.35v-32.71z"/>
				<path id="&lt;Compound Path&gt;" class="s0" d="m591.57 375.51h-90.12c-18.38 0-33.88-11.25-33.88-24.6v-130.88c0-13.35 15.5-24.61 33.88-24.61h90.12c18.38 0 33.88 11.26 33.88 24.61v49.21h-67.76v-24.6h-22.35v81.66h22.35v-24.34h67.76v48.95c0 13.35-15.5 24.6-33.88 24.6z"/>
			</g>
			<g id="&lt;Group&gt;">
				<g id="&lt;Group&gt;">
					<g id="&lt;Group&gt;">
						<g id="&lt;Group&gt;">
							<path id="&lt;Compound Path&gt;" class="s1" d="m858.91 110.73h-41.9c-3.75 0-6.79 2.21-6.79 4.94v22.04c0 2.72 3.04 4.93 6.79 4.93h41.9c3.75 0 6.79-2.21 6.79-4.93v-22.04c0-2.73-3.04-4.94-6.79-4.94z"/>
						</g>
						<g id="&lt;Group&gt;">
							<path id="&lt;Compound Path&gt;" class="s1" d="m839.89 17.63h-19.91c-1.78 0-3.23 1.05-3.23 2.34v10.47c0 1.29 1.45 2.34 3.23 2.34h19.91c1.78 0 3.22-1.05 3.22-2.34v-10.47c0-1.29-1.44-2.34-3.22-2.34z"/>
						</g>
						<g id="&lt;Group&gt;">
							<path id="&lt;Compound Path&gt;" class="s1" d="m813.73 41.99h-19.9c-1.79 0-3.23 1.05-3.23 2.34v10.47c0 1.3 1.44 2.34 3.23 2.34h19.9c1.78 0 3.23-1.04 3.23-2.34v-10.47c0-1.29-1.45-2.34-3.23-2.34z"/>
						</g>
						<g id="&lt;Group&gt;">
							<path id="&lt;Compound Path&gt;" class="s1" d="m865.47 40.13h-19.9c-1.78 0-3.23 1.05-3.23 2.34v10.47c0 1.3 1.45 2.35 3.23 2.35h19.9c1.79 0 3.23-1.05 3.23-2.35v-10.47c0-1.29-1.44-2.34-3.23-2.34z"/>
						</g>
						<g id="&lt;Group&gt;">
							<path id="&lt;Compound Path&gt;" class="s1" d="m736.12 89.06h-19.91c-1.78 0-3.22 1.05-3.22 2.34v10.47c0 1.29 1.44 2.34 3.22 2.34h19.91c1.78 0 3.23-1.05 3.23-2.34v-10.47c0-1.29-1.45-2.34-3.23-2.34z"/>
						</g>
						<g id="&lt;Group&gt;">
							<path id="&lt;Compound Path&gt;" class="s1" d="m709.4 125.39h-19.91c-1.78 0-3.23 1.05-3.23 2.35v10.47c0 1.29 1.45 2.34 3.23 2.34h19.91c1.78 0 3.22-1.05 3.22-2.34v-10.47c0-1.3-1.44-2.35-3.22-2.35z"/>
						</g>
						<g id="&lt;Group&gt;">
							<path id="&lt;Compound Path&gt;" class="s1" d="m822.83 153.26h-19.91c-1.78 0-3.22 1.05-3.22 2.35v10.47c0 1.29 1.44 2.34 3.22 2.34h19.91c1.78 0 3.23-1.05 3.23-2.34v-10.47c0-1.3-1.45-2.35-3.23-2.35z"/>
						</g>
						<g id="&lt;Group&gt;">
							<path id="&lt;Compound Path&gt;" class="s1" d="m859.79 153.47h-19.91c-1.78 0-3.23 1.05-3.23 2.34v10.47c0 1.3 1.45 2.35 3.23 2.35h19.91c1.78 0 3.23-1.05 3.23-2.35v-10.47c0-1.29-1.45-2.34-3.23-2.34z"/>
						</g>
						<g id="&lt;Group&gt;">
							<path id="&lt;Compound Path&gt;" class="s1" d="m854.75 238.52h-22.91c-2.05 0-3.71 1.1-3.71 2.44v10.9c0 1.35 1.66 2.44 3.71 2.44h22.91c2.05 0 3.72-1.09 3.72-2.44v-10.9c0-1.34-1.67-2.44-3.72-2.44z"/>
						</g>
						<g id="&lt;Group&gt;">
							<path id="&lt;Compound Path&gt;" class="s1" d="m946.86 148.51h-21.2c-1.89 0-3.43 1.02-3.43 2.28v10.19c0 1.26 1.54 2.28 3.43 2.28h21.2c1.9 0 3.43-1.02 3.43-2.28v-10.19c0-1.26-1.53-2.28-3.43-2.28z"/>
						</g>
						<g id="&lt;Group&gt;">
							<path id="&lt;Compound Path&gt;" class="s1" d="m904.78 108.67h-21.19c-1.9 0-3.44 1.02-3.44 2.28v10.18c0 1.26 1.54 2.28 3.44 2.28h21.19c1.9 0 3.44-1.02 3.44-2.28v-10.18c0-1.26-1.54-2.28-3.44-2.28z"/>
						</g>
						<g id="&lt;Group&gt;">
							<path id="&lt;Compound Path&gt;" class="s1" d="m905.56 53.76h-19.91c-1.78 0-3.22 1.04-3.22 2.34v10.47c0 1.29 1.44 2.34 3.22 2.34h19.91c1.78 0 3.23-1.05 3.23-2.34v-10.47c0-1.3-1.45-2.34-3.23-2.34z"/>
						</g>
						<g id="&lt;Group&gt;">
							<path id="&lt;Compound Path&gt;" class="s1" d="m1131.48 144.38h-23.98c-2.15 0-3.89 1.27-3.89 2.83v12.61c0 1.56 1.74 2.83 3.89 2.83h23.98c2.15 0 3.89-1.27 3.89-2.83v-12.61c0-1.56-1.74-2.83-3.89-2.83z"/>
						</g>
						<g id="&lt;Group&gt;">
							<path id="&lt;Compound Path&gt;" class="s1" d="m1179.24 145h-23.98c-2.15 0-3.89 1.27-3.89 2.83v12.61c0 1.56 1.74 2.83 3.89 2.83h23.98c2.15 0 3.89-1.27 3.89-2.83v-12.61c0-1.56-1.74-2.83-3.89-2.83z"/>
						</g>
						<g id="&lt;Group&gt;">
							<path id="&lt;Compound Path&gt;" class="s1" d="m1041.08 144.59h-23.99c-2.15 0-3.89 1.27-3.89 2.83v12.61c0 1.56 1.74 2.82 3.89 2.82h23.99c2.14 0 3.88-1.26 3.88-2.82v-12.61c0-1.56-1.74-2.83-3.88-2.83z"/>
						</g>
						<g id="&lt;Group&gt;">
							<path id="&lt;Compound Path&gt;" class="s1" d="m1086.56 144.18h-23.98c-2.15 0-3.89 1.26-3.89 2.82v12.62c0 1.56 1.74 2.82 3.89 2.82h23.98c2.15 0 3.89-1.26 3.89-2.82v-12.62c0-1.56-1.74-2.82-3.89-2.82z"/>
						</g>
						<g id="&lt;Group&gt;">
							<path id="&lt;Compound Path&gt;" class="s1" d="m722.01 160.54h-20.42c-1.83 0-3.31 0.87-3.31 1.94v8.67c0 1.07 1.48 1.94 3.31 1.94h20.42c1.83 0 3.31-0.87 3.31-1.94v-8.67c0-1.07-1.48-1.94-3.31-1.94z"/>
						</g>
						<g id="&lt;Group&gt;">
							<path id="&lt;Compound Path&gt;" class="s1" d="m847.52 175.76h-16.69c-1.49 0-2.7 1.05-2.7 2.35v10.47c0 1.29 1.21 2.34 2.7 2.34h16.69c1.49 0 2.7-1.05 2.7-2.34v-10.47c0-1.3-1.21-2.35-2.7-2.35z"/>
						</g>
						<g id="&lt;Group&gt;">
							<path id="&lt;Compound Path&gt;" class="s1" d="m812.87 175.56h-18.19c-1.62 0-2.94 1.05-2.94 2.34v10.47c0 1.3 1.32 2.34 2.94 2.34h18.19c1.63 0 2.95-1.04 2.95-2.34v-10.47c0-1.29-1.32-2.34-2.95-2.34z"/>
						</g>
						<g id="&lt;Group&gt;">
							<path id="&lt;Compound Path&gt;" class="s1" d="m946.21 96.28h-19.9c-1.78 0-3.23 0.97-3.23 2.16v9.61c0 1.19 1.45 2.15 3.23 2.15h19.9c1.79 0 3.23-0.96 3.23-2.15v-9.61c0-1.19-1.44-2.16-3.23-2.16z"/>
						</g>
						<g id="&lt;Group&gt;">
							<path id="&lt;Compound Path&gt;" class="s1" d="m945.93 121.68h-19.91c-1.78 0-3.22 0.96-3.22 2.15v9.61c0 1.19 1.44 2.15 3.22 2.15h19.91c1.78 0 3.23-0.96 3.23-2.15v-9.61c0-1.19-1.45-2.15-3.23-2.15z"/>
						</g>
						<g id="&lt;Group&gt;">
							<path id="&lt;Compound Path&gt;" class="s1" d="m904.08 135.69h-19.91c-1.78 0-3.23 0.96-3.23 2.15v9.61c0 1.19 1.45 2.16 3.23 2.16h19.91c1.78 0 3.22-0.97 3.22-2.16v-9.61c0-1.19-1.44-2.15-3.22-2.15z"/>
						</g>
						<g id="&lt;Group&gt;">
							<path id="&lt;Compound Path&gt;" class="s1" d="m944.79 67.79h-19.9c-1.79 0-3.23 1.05-3.23 2.35v10.47c0 1.29 1.44 2.34 3.23 2.34h19.9c1.79 0 3.23-1.05 3.23-2.34v-10.47c0-1.3-1.44-2.35-3.23-2.35z"/>
						</g>
						<g id="&lt;Group&gt;">
							<path id="&lt;Compound Path&gt;" class="s1" d="m1140.39 175.15h-21.62c-1.94 0-3.51 1.04-3.51 2.34v10.47c0 1.29 1.57 2.34 3.51 2.34h21.62c1.94 0 3.51-1.05 3.51-2.34v-10.47c0-1.3-1.57-2.34-3.51-2.34z"/>
						</g>
						<g id="&lt;Group&gt;">
							<path id="&lt;Compound Path&gt;" class="s1" d="m1186.45 175.76h-21.62c-1.94 0-3.51 1.05-3.51 2.35v10.47c0 1.29 1.57 2.34 3.51 2.34h21.62c1.94 0 3.51-1.05 3.51-2.34v-10.47c0-1.3-1.57-2.35-3.51-2.35z"/>
						</g>
						<g id="&lt;Group&gt;">
							<path id="&lt;Compound Path&gt;" class="s1" d="m1057.38 86.37h-21.62c-1.94 0-3.51 1-3.51 2.22v9.9c0 1.22 1.57 2.21 3.51 2.21h21.62c1.94 0 3.51-0.99 3.51-2.21v-9.9c0-1.22-1.57-2.22-3.51-2.22z"/>
						</g>
						<g id="&lt;Group&gt;">
							<path id="&lt;Compound Path&gt;" class="s1" d="m1101.16 86.37h-21.62c-1.94 0-3.51 1-3.51 2.22v9.9c0 1.22 1.57 2.21 3.51 2.21h21.62c1.94 0 3.51-0.99 3.51-2.21v-9.9c0-1.22-1.57-2.22-3.51-2.22z"/>
						</g>
						<g id="&lt;Group&gt;">
							<path id="&lt;Compound Path&gt;" class="s1" d="m1148.92 119.82h-21.62c-1.94 0-3.51 1.06-3.51 2.37v10.62c0 1.31 1.57 2.37 3.51 2.37h21.62c1.94 0 3.51-1.06 3.51-2.37v-10.62c0-1.31-1.57-2.37-3.51-2.37z"/>
						</g>
						<g id="&lt;Group&gt;">
							<path id="&lt;Compound Path&gt;" class="s1" d="m958.96 40.75h-27.2c-2.44 0-4.42 1.42-4.42 3.17v14.18c0 1.75 1.98 3.17 4.42 3.17h27.2c2.44 0 4.41-1.42 4.41-3.17v-14.18c0-1.75-1.97-3.17-4.41-3.17z"/>
						</g>
						<g id="&lt;Group&gt;">
							<path id="&lt;Compound Path&gt;" class="s1" d="m1012.38 20.93h-29.14c-2.61 0-4.72 1.62-4.72 3.62v16.17c0 2 2.11 3.62 4.72 3.62h29.14c2.61 0 4.72-1.62 4.72-3.62v-16.17c0-2-2.11-3.62-4.72-3.62z"/>
						</g>
						<g id="&lt;Group&gt;">
							<path id="&lt;Compound Path&gt;" class="s1" d="m1063.07 52.52h-27.25c-2.44 0-4.42 1.42-4.42 3.17v14.18c0 1.75 1.98 3.17 4.42 3.17h27.25c2.45 0 4.42-1.42 4.42-3.17v-14.18c0-1.75-1.97-3.17-4.42-3.17z"/>
						</g>
						<g id="&lt;Group&gt;">
							<path id="&lt;Compound Path&gt;" class="s1" d="m1009.06 115.07h-27.26c-2.44 0-4.42 1.42-4.42 3.17v14.18c0 1.75 1.98 3.17 4.42 3.17h27.26c2.44 0 4.42-1.42 4.42-3.17v-14.18c0-1.75-1.98-3.17-4.42-3.17z"/>
						</g>
						<g id="&lt;Group&gt;">
							<path id="&lt;Compound Path&gt;" class="s1" d="m1059.94 116.93h-25.54c-2.29 0-4.14 1.32-4.14 2.95v13.18c0 1.62 1.85 2.95 4.14 2.95h25.54c2.29 0 4.14-1.33 4.14-2.95v-13.18c0-1.63-1.85-2.95-4.14-2.95z"/>
						</g>
						<g id="&lt;Group&gt;">
							<path id="&lt;Compound Path&gt;" class="s1" d="m839.89 62.22h-19.91c-1.78 0-3.23 1.05-3.23 2.34v10.47c0 1.3 1.45 2.35 3.23 2.35h19.91c1.78 0 3.22-1.05 3.22-2.35v-10.47c0-1.29-1.44-2.34-3.22-2.34z"/>
						</g>
						<g id="&lt;Group&gt;">
							<path id="&lt;Compound Path&gt;" class="s1" d="m780.45 68.21h-23.56c-2.11 0-3.82 1.23-3.82 2.76v12.32c0 1.52 1.71 2.76 3.82 2.76h23.56c2.11 0 3.82-1.24 3.82-2.76v-12.32c0-1.53-1.71-2.76-3.82-2.76z"/>
						</g>
						<g id="&lt;Group&gt;">
							<path id="&lt;Compound Path&gt;" class="s1" d="m787.63 102.68h-26.56c-2.37 0-4.3 1.4-4.3 3.11v13.89c0 1.72 1.93 3.11 4.3 3.11h26.56c2.37 0 4.3-1.39 4.3-3.11v-13.89c0-1.71-1.93-3.11-4.3-3.11z"/>
						</g>
						<g id="&lt;Group&gt;">
							<path id="&lt;Compound Path&gt;" class="s1" d="m772.99 160.18h-31.33c-2.8 0-5.08 1.64-5.08 3.66v16.39c0 2.03 2.28 3.67 5.08 3.67h31.33c2.81 0 5.08-1.64 5.08-3.67v-16.39c0-2.02-2.27-3.66-5.08-3.66z"/>
						</g>
						<g id="&lt;Group&gt;">
							<path id="&lt;Compound Path&gt;" class="s1" d="m835.81 201.67h-38.42c-3.43 0-6.22 1.81-6.22 4.05v18.1c0 2.24 2.79 4.06 6.22 4.06h38.42c3.44 0 6.23-1.82 6.23-4.06v-18.1c0-2.24-2.79-4.05-6.23-4.05z"/>
						</g>
					</g>
				</g>
				<g id="&lt;Group&gt;">
					<g id="&lt;Group&gt;">
						<path id="&lt;Compound Path&gt;" class="s3" d="m828.37 83.43h-23.2c-2.08 0-3.76 1.22-3.76 2.73v12.19c0 1.51 1.68 2.73 3.76 2.73h23.2c2.07 0 3.76-1.22 3.76-2.73v-12.19c0-1.51-1.69-2.73-3.76-2.73z"/>
					</g>
					<g id="&lt;Group&gt;">
						<path id="&lt;Compound Path&gt;" class="s3" d="m874 83.43h-23.19c-2.08 0-3.77 1.22-3.77 2.73v12.19c0 1.51 1.69 2.73 3.77 2.73h23.19c2.08 0 3.76-1.22 3.76-2.73v-12.19c0-1.51-1.68-2.73-3.76-2.73z"/>
					</g>
					<g id="&lt;Group&gt;">
						<path id="&lt;Compound Path&gt;" class="s3" d="m745.63 107.91h-21.47c-1.92 0-3.48 1.05-3.48 2.34v10.47c0 1.3 1.56 2.35 3.48 2.35h21.47c1.92 0 3.48-1.05 3.48-2.35v-10.47c0-1.29-1.56-2.34-3.48-2.34z"/>
					</g>
					<g id="&lt;Group&gt;">
						<path id="&lt;Compound Path&gt;" class="s3" d="m790.81 133.39h-21.47c-1.92 0-3.48 1.11-3.48 2.47v11.05c0 1.36 1.56 2.47 3.48 2.47h21.47c1.92 0 3.48-1.11 3.48-2.47v-11.05c0-1.36-1.56-2.47-3.48-2.47z"/>
					</g>
					<g id="&lt;Group&gt;">
						<path id="&lt;Compound Path&gt;" class="s3" d="m747.93 133.72h-20.57c-1.84 0-3.33 1.06-3.33 2.37v10.59c0 1.3 1.49 2.36 3.33 2.36h20.57c1.85 0 3.34-1.06 3.34-2.36v-10.59c0-1.31-1.49-2.37-3.34-2.37z"/>
					</g>
					<g id="&lt;Group&gt;">
						<path id="&lt;Compound Path&gt;" class="s3" d="m902.87 162.18h-19.7c-1.77 0-3.2 1.01-3.2 2.27v10.14c0 1.25 1.43 2.27 3.2 2.27h19.7c1.77 0 3.2-1.02 3.2-2.27v-10.14c0-1.26-1.43-2.27-3.2-2.27z"/>
					</g>
					<g id="&lt;Group&gt;">
						<path id="&lt;Compound Path&gt;" class="s3" d="m874.74 192.99h-17.8c-1.59 0-2.88 1.1-2.88 2.47v11.06c0 1.37 1.29 2.48 2.88 2.48h17.8c1.6 0 2.89-1.11 2.89-2.48v-11.06c0-1.37-1.29-2.47-2.89-2.47z"/>
					</g>
					<g id="&lt;Group&gt;">
						<path id="&lt;Compound Path&gt;" class="s3" d="m874.74 216.97h-17.8c-1.59 0-2.88 1.1-2.88 2.47v11.06c0 1.37 1.29 2.48 2.88 2.48h17.8c1.6 0 2.89-1.11 2.89-2.48v-11.06c0-1.37-1.29-2.47-2.89-2.47z"/>
					</g>
					<g id="&lt;Group&gt;">
						<path id="&lt;Compound Path&gt;" class="s3" d="m1011.03 52.34h-25.97c-2.32 0-4.21 1.13-4.21 2.53v11.26c0 1.39 1.89 2.52 4.21 2.52h25.97c2.33 0 4.21-1.13 4.21-2.52v-11.26c0-1.4-1.88-2.53-4.21-2.53z"/>
					</g>
					<g id="&lt;Group&gt;">
						<path id="&lt;Compound Path&gt;" class="s3" d="m1011.43 76.88h-43.32c-3.88 0-7.02 2.07-7.02 4.62v20.64c0 2.55 3.14 4.62 7.02 4.62h43.32c3.87 0 7.02-2.07 7.02-4.62v-20.64c0-2.55-3.15-4.62-7.02-4.62z"/>
					</g>
					<g id="&lt;Group&gt;">
						<path id="&lt;Compound Path&gt;" class="s3" d="m1106.41 114.99h-27.48c-2.46 0-4.46 1.44-4.46 3.21v14.35c0 1.78 2 3.21 4.46 3.21h27.48c2.46 0 4.46-1.43 4.46-3.21v-14.35c0-1.77-2-3.21-4.46-3.21z"/>
					</g>
					<g id="&lt;Group&gt;">
						<path id="&lt;Compound Path&gt;" class="s3" d="m992.61 146.8h-20.46c-1.83 0-3.32 1.13-3.32 2.52v11.29c0 1.39 1.49 2.52 3.32 2.52h20.46c1.83 0 3.31-1.13 3.31-2.52v-11.29c0-1.39-1.48-2.52-3.31-2.52z"/>
					</g>
					<g id="&lt;Group&gt;">
						<path id="&lt;Compound Path&gt;" class="s3" d="m1053.64 174.39h-22.9c-2.05 0-3.71 1.14-3.71 2.54v11.35c0 1.41 1.66 2.54 3.71 2.54h22.9c2.05 0 3.71-1.13 3.71-2.54v-11.35c0-1.4-1.66-2.54-3.71-2.54z"/>
					</g>
					<g id="&lt;Group&gt;">
						<path id="&lt;Compound Path&gt;" class="s3" d="m1096.01 174.94h-22.9c-2.06 0-3.72 1.13-3.72 2.54v11.35c0 1.4 1.66 2.54 3.72 2.54h22.9c2.05 0 3.71-1.14 3.71-2.54v-11.35c0-1.41-1.66-2.54-3.71-2.54z"/>
					</g>
				</g>
			</g>
		</g>
	</g>
</svg>