<svg version="1.2" xmlns="http://www.w3.org/2000/svg" viewBox="0 0 1584 1224" width="24" height="24">
	<defs>
		<linearGradient id="g1" x2="1" gradientUnits="userSpaceOnUse" gradientTransform="matrix(0,-479.543,479.543,0,531.587,852.59)">
			<stop offset=".03" stop-color="#a91d51"/>
			<stop offset=".42" stop-color="#e81977"/>
			<stop offset=".54" stop-color="#e81977"/>
			<stop offset="1" stop-color="#ee5197"/>
		</linearGradient>
		<clipPath clipPathUnits="userSpaceOnUse" id="cp1">
			<path d="m1052.02 611.71c0 143.71-116.5 260.21-260.22 260.21-143.71 0-260.21-116.5-260.21-260.21 0-143.72 116.5-260.22 260.21-260.22 143.72 0 260.22 116.5 260.22 260.22z"/>
		</clipPath>
	</defs>
	<style>
		.s0 { fill: url(#g1) } 
		.s1 { fill: #fefefe } 
	</style>
	<g id="Layer 1">
		<path id="&lt;Path&gt;" class="s0" d="m1052.02 611.71c0 143.71-116.5 260.21-260.22 260.21-143.71 0-260.21-116.5-260.21-260.21 0-143.72 116.5-260.22 260.21-260.22 143.72 0 260.22 116.5 260.22 260.22z"/>
		<g id="&lt;Clip Group&gt;" clip-path="url(#cp1)">
			<path id="&lt;Path&gt;" class="s1" d="m780.09 872.74h77.47c0 0-7.33-39.44-8.02-65.96 0 0 10.12-20.94 12.21-35.6 2.09-14.65 2.09-35.94 4.89-47.46 2.79-11.52 11.86-47.63 13.26-52 2.79-8.72-8.03-14.65-12.22-5.58-4.18 9.07-16.05 39.09-18.14 43.27-3.49 8.38-6.9 6.95-5.59-2.79 4.89-36.29 6.63-58.28 5.24-64.56 1.04-11.52-15.71-16.4-17.1-3.49-1.4 12.91-5.94 44.32-7.68 51.65-1.75 7.33-5.58 17.45-8.03 4.54-2.44-12.92-5.81-50.24-6.28-59.33-1.05-20.24-18.49-12.56-18.49-2.44 0 10.12 2.44 60.02 2.44 65.6 0 5.59-2.79 14.31-8.03 3.49-5.23-10.81-17.8-39.43-21.29-45.71-3.14-9.42-17.45-9.08-15.35 2.79 2.09 11.86 8.03 38.74 11.51 47.46 3.49 8.73 6.64 30.36 3.84 32.81-2.79 2.44-10.81 2.79-16.4-0.7-5.58-3.49-15.35-12.92-20.59-12.57-5.23 0.35-12.91 3.14-13.26 5.59 0 0-0.35 2.79 8.38 10.12 8.72 7.33 17.44 15.35 21.98 20.94 4.54 5.58 24.08 30.71 31.41 36.99 7.33 6.28 10.12 35.59 9.42 43.62-0.7 8.03-5.58 29.32-5.58 29.32z"/>
			<g id="&lt;Group&gt;">
				<g id="&lt;Group&gt;">
					<g id="&lt;Group&gt;">
						<g id="&lt;Group&gt;">
							<path id="&lt;Compound Path&gt;" class="s1" d="m719.64 540.37h-38.17c-3.42 0-6.19 2.77-6.19 6.19v27.65c0 3.42 2.77 6.19 6.19 6.19h38.17c3.42 0 6.19-2.77 6.19-6.19v-27.65c0-3.42-2.77-6.19-6.19-6.19z"/>
						</g>
						<g id="&lt;Group&gt;">
							<path id="&lt;Compound Path&gt;" class="s1" d="m702.31 423.55h-18.14c-1.62 0-2.94 1.32-2.94 2.94v13.14c0 1.62 1.32 2.94 2.94 2.94h18.14c1.63 0 2.94-1.32 2.94-2.94v-13.14c0-1.62-1.31-2.94-2.94-2.94z"/>
						</g>
						<g id="&lt;Group&gt;">
							<path id="&lt;Compound Path&gt;" class="s1" d="m678.48 454.12h-18.14c-1.62 0-2.94 1.31-2.94 2.94v13.13c0 1.63 1.32 2.94 2.94 2.94h18.14c1.63 0 2.94-1.31 2.94-2.94v-13.13c0-1.63-1.31-2.94-2.94-2.94z"/>
						</g>
						<g id="&lt;Group&gt;">
							<path id="&lt;Compound Path&gt;" class="s1" d="m725.62 451.79h-18.13c-1.63 0-2.94 1.31-2.94 2.94v13.13c0 1.63 1.31 2.94 2.94 2.94h18.13c1.63 0 2.94-1.31 2.94-2.94v-13.13c0-1.63-1.31-2.94-2.94-2.94z"/>
						</g>
						<g id="&lt;Group&gt;">
							<path id="&lt;Compound Path&gt;" class="s1" d="m607.77 513.18h-18.14c-1.62 0-2.94 1.31-2.94 2.94v13.13c0 1.63 1.32 2.94 2.94 2.94h18.14c1.62 0 2.94-1.31 2.94-2.94v-13.13c0-1.63-1.32-2.94-2.94-2.94z"/>
						</g>
						<g id="&lt;Group&gt;">
							<path id="&lt;Compound Path&gt;" class="s1" d="m583.42 558.76h-18.14c-1.62 0-2.94 1.32-2.94 2.94v13.14c0 1.62 1.32 2.94 2.94 2.94h18.14c1.62 0 2.94-1.32 2.94-2.94v-13.14c0-1.62-1.32-2.94-2.94-2.94z"/>
						</g>
						<g id="&lt;Group&gt;">
							<path id="&lt;Compound Path&gt;" class="s1" d="m686.77 593.73h-18.14c-1.62 0-2.94 1.32-2.94 2.94v13.14c0 1.62 1.32 2.94 2.94 2.94h18.14c1.62 0 2.94-1.32 2.94-2.94v-13.14c0-1.62-1.32-2.94-2.94-2.94z"/>
						</g>
						<g id="&lt;Group&gt;">
							<path id="&lt;Compound Path&gt;" class="s1" d="m720.44 593.99h-18.13c-1.63 0-2.94 1.32-2.94 2.94v13.14c0 1.62 1.31 2.94 2.94 2.94h18.13c1.63 0 2.94-1.32 2.94-2.94v-13.14c0-1.62-1.31-2.94-2.94-2.94z"/>
						</g>
						<g id="&lt;Group&gt;">
							<path id="&lt;Compound Path&gt;" class="s1" d="m715.86 700.71h-20.88c-1.87 0-3.38 1.37-3.38 3.06v13.67c0 1.69 1.51 3.06 3.38 3.06h20.88c1.86 0 3.38-1.37 3.38-3.06v-13.67c0-1.69-1.52-3.06-3.38-3.06z"/>
						</g>
						<g id="&lt;Group&gt;">
							<path id="&lt;Compound Path&gt;" class="s1" d="m799.77 587.77h-19.31c-1.72 0-3.13 1.29-3.13 2.87v12.77c0 1.58 1.41 2.86 3.13 2.86h19.31c1.73 0 3.14-1.28 3.14-2.86v-12.77c0-1.58-1.41-2.87-3.14-2.87z"/>
						</g>
						<g id="&lt;Group&gt;">
							<path id="&lt;Compound Path&gt;" class="s1" d="m761.44 537.78h-19.31c-1.73 0-3.13 1.28-3.13 2.86v12.78c0 1.58 1.4 2.86 3.13 2.86h19.31c1.73 0 3.13-1.28 3.13-2.86v-12.78c0-1.58-1.4-2.86-3.13-2.86z"/>
						</g>
						<g id="&lt;Group&gt;">
							<path id="&lt;Compound Path&gt;" class="s1" d="m762.15 468.88h-18.14c-1.62 0-2.94 1.32-2.94 2.94v13.14c0 1.62 1.32 2.94 2.94 2.94h18.14c1.62 0 2.94-1.32 2.94-2.94v-13.14c0-1.62-1.32-2.94-2.94-2.94z"/>
						</g>
						<g id="&lt;Group&gt;">
							<path id="&lt;Compound Path&gt;" class="s1" d="m967.99 582.59h-21.85c-1.96 0-3.55 1.59-3.55 3.55v15.83c0 1.95 1.59 3.54 3.55 3.54h21.85c1.96 0 3.54-1.59 3.54-3.54v-15.83c0-1.96-1.58-3.55-3.54-3.55z"/>
						</g>
						<g id="&lt;Group&gt;">
							<path id="&lt;Compound Path&gt;" class="s1" d="m1011.51 583.37h-21.86c-1.96 0-3.54 1.59-3.54 3.54v15.83c0 1.96 1.58 3.55 3.54 3.55h21.86c1.95 0 3.54-1.59 3.54-3.55v-15.83c0-1.95-1.59-3.54-3.54-3.54z"/>
						</g>
						<g id="&lt;Group&gt;">
							<path id="&lt;Compound Path&gt;" class="s1" d="m885.62 582.85h-21.86c-1.95 0-3.54 1.59-3.54 3.55v15.82c0 1.96 1.59 3.55 3.54 3.55h21.86c1.96 0 3.54-1.59 3.54-3.55v-15.82c0-1.96-1.58-3.55-3.54-3.55z"/>
						</g>
						<g id="&lt;Group&gt;">
							<path id="&lt;Compound Path&gt;" class="s1" d="m927.06 582.34h-21.85c-1.96 0-3.54 1.58-3.54 3.54v15.83c0 1.95 1.58 3.54 3.54 3.54h21.85c1.96 0 3.55-1.59 3.55-3.54v-15.83c0-1.96-1.59-3.54-3.55-3.54z"/>
						</g>
						<g id="&lt;Group&gt;">
							<path id="&lt;Compound Path&gt;" class="s1" d="m594.91 602.86h-18.6c-1.67 0-3.02 1.09-3.02 2.44v10.87c0 1.35 1.35 2.43 3.02 2.43h18.6c1.66 0 3.01-1.08 3.01-2.43v-10.87c0-1.35-1.35-2.44-3.01-2.44z"/>
						</g>
						<g id="&lt;Group&gt;">
							<path id="&lt;Compound Path&gt;" class="s1" d="m709.26 621.97h-15.2c-1.36 0-2.46 1.31-2.46 2.94v13.13c0 1.63 1.1 2.94 2.46 2.94h15.2c1.36 0 2.47-1.31 2.47-2.94v-13.13c0-1.63-1.11-2.94-2.47-2.94z"/>
						</g>
						<g id="&lt;Group&gt;">
							<path id="&lt;Compound Path&gt;" class="s1" d="m677.7 621.71h-16.57c-1.49 0-2.69 1.31-2.69 2.94v13.13c0 1.63 1.2 2.94 2.69 2.94h16.57c1.48 0 2.69-1.31 2.69-2.94v-13.13c0-1.63-1.21-2.94-2.69-2.94z"/>
						</g>
						<g id="&lt;Group&gt;">
							<path id="&lt;Compound Path&gt;" class="s1" d="m799.19 522.24h-18.14c-1.62 0-2.94 1.21-2.94 2.7v12.06c0 1.5 1.32 2.7 2.94 2.7h18.14c1.62 0 2.94-1.2 2.94-2.7v-12.06c0-1.49-1.32-2.7-2.94-2.7z"/>
						</g>
						<g id="&lt;Group&gt;">
							<path id="&lt;Compound Path&gt;" class="s1" d="m798.93 554.1h-18.14c-1.62 0-2.94 1.21-2.94 2.7v12.06c0 1.5 1.32 2.7 2.94 2.7h18.14c1.62 0 2.94-1.2 2.94-2.7v-12.06c0-1.49-1.32-2.7-2.94-2.7z"/>
						</g>
						<g id="&lt;Group&gt;">
							<path id="&lt;Compound Path&gt;" class="s1" d="m760.8 571.68h-18.14c-1.63 0-2.94 1.21-2.94 2.7v12.07c0 1.49 1.31 2.7 2.94 2.7h18.14c1.62 0 2.94-1.21 2.94-2.7v-12.07c0-1.49-1.32-2.7-2.94-2.7z"/>
						</g>
						<g id="&lt;Group&gt;">
							<path id="&lt;Compound Path&gt;" class="s1" d="m797.89 486.5h-18.13c-1.63 0-2.94 1.31-2.94 2.94v13.13c0 1.63 1.31 2.94 2.94 2.94h18.13c1.63 0 2.94-1.31 2.94-2.94v-13.13c0-1.63-1.31-2.94-2.94-2.94z"/>
						</g>
						<g id="&lt;Group&gt;">
							<path id="&lt;Compound Path&gt;" class="s1" d="m976.11 621.19h-19.7c-1.77 0-3.2 1.32-3.2 2.94v13.14c0 1.62 1.43 2.94 3.2 2.94h19.7c1.76 0 3.19-1.32 3.19-2.94v-13.14c0-1.62-1.43-2.94-3.19-2.94z"/>
						</g>
						<g id="&lt;Group&gt;">
							<path id="&lt;Compound Path&gt;" class="s1" d="m1018.07 621.97h-19.7c-1.77 0-3.2 1.31-3.2 2.94v13.13c0 1.63 1.43 2.94 3.2 2.94h19.7c1.76 0 3.19-1.31 3.19-2.94v-13.13c0-1.63-1.43-2.94-3.19-2.94z"/>
						</g>
						<g id="&lt;Group&gt;">
							<path id="&lt;Compound Path&gt;" class="s1" d="m900.47 509.81h-19.7c-1.76 0-3.19 1.24-3.19 2.78v12.42c0 1.53 1.43 2.78 3.19 2.78h19.7c1.77 0 3.2-1.25 3.2-2.78v-12.42c0-1.54-1.43-2.78-3.2-2.78z"/>
						</g>
						<g id="&lt;Group&gt;">
							<path id="&lt;Compound Path&gt;" class="s1" d="m940.36 509.81h-19.7c-1.76 0-3.19 1.24-3.19 2.78v12.42c0 1.53 1.43 2.78 3.19 2.78h19.7c1.77 0 3.2-1.25 3.2-2.78v-12.42c0-1.54-1.43-2.78-3.2-2.78z"/>
						</g>
						<g id="&lt;Group&gt;">
							<path id="&lt;Compound Path&gt;" class="s1" d="m983.88 551.77h-19.7c-1.77 0-3.2 1.33-3.2 2.98v13.32c0 1.64 1.43 2.98 3.2 2.98h19.7c1.76 0 3.19-1.34 3.19-2.98v-13.32c0-1.65-1.43-2.98-3.19-2.98z"/>
						</g>
						<g id="&lt;Group&gt;">
							<path id="&lt;Compound Path&gt;" class="s1" d="m810.8 452.56h-24.79c-2.21 0-4.01 1.79-4.01 3.98v17.79c0 2.2 1.8 3.98 4.01 3.98h24.79c2.22 0 4.02-1.78 4.02-3.98v-17.79c0-2.19-1.8-3.98-4.02-3.98z"/>
						</g>
						<g id="&lt;Group&gt;">
							<path id="&lt;Compound Path&gt;" class="s1" d="m859.47 427.7h-26.55c-2.37 0-4.3 2.03-4.3 4.54v20.29c0 2.51 1.93 4.54 4.3 4.54h26.55c2.38 0 4.31-2.03 4.31-4.54v-20.29c0-2.51-1.93-4.54-4.31-4.54z"/>
						</g>
						<g id="&lt;Group&gt;">
							<path id="&lt;Compound Path&gt;" class="s1" d="m905.66 467.33h-24.83c-2.23 0-4.03 1.78-4.03 3.98v17.79c0 2.2 1.8 3.98 4.03 3.98h24.83c2.23 0 4.03-1.78 4.03-3.98v-17.79c0-2.2-1.8-3.98-4.03-3.98z"/>
						</g>
						<g id="&lt;Group&gt;">
							<path id="&lt;Compound Path&gt;" class="s1" d="m856.45 545.81h-24.84c-2.22 0-4.03 1.79-4.03 3.98v17.79c0 2.2 1.81 3.98 4.03 3.98h24.84c2.22 0 4.02-1.78 4.02-3.98v-17.79c0-2.19-1.8-3.98-4.02-3.98z"/>
						</g>
						<g id="&lt;Group&gt;">
							<path id="&lt;Compound Path&gt;" class="s1" d="m902.81 548.14h-23.27c-2.09 0-3.78 1.66-3.78 3.7v16.54c0 2.04 1.69 3.7 3.78 3.7h23.27c2.08 0 3.77-1.66 3.77-3.7v-16.54c0-2.04-1.69-3.7-3.77-3.7z"/>
						</g>
						<g id="&lt;Group&gt;">
							<path id="&lt;Compound Path&gt;" class="s1" d="m702.31 479.5h-18.14c-1.62 0-2.94 1.32-2.94 2.94v13.14c0 1.62 1.32 2.94 2.94 2.94h18.14c1.63 0 2.94-1.32 2.94-2.94v-13.14c0-1.62-1.31-2.94-2.94-2.94z"/>
						</g>
						<g id="&lt;Group&gt;">
							<path id="&lt;Compound Path&gt;" class="s1" d="m648.15 487.01h-21.46c-1.92 0-3.48 1.55-3.48 3.46v15.47c0 1.91 1.56 3.46 3.48 3.46h21.46c1.93 0 3.48-1.55 3.48-3.46v-15.47c0-1.91-1.55-3.46-3.48-3.46z"/>
						</g>
						<g id="&lt;Group&gt;">
							<path id="&lt;Compound Path&gt;" class="s1" d="m654.7 530.27h-24.2c-2.16 0-3.92 1.75-3.92 3.9v17.43c0 2.16 1.76 3.9 3.92 3.9h24.2c2.16 0 3.92-1.74 3.92-3.9v-17.43c0-2.15-1.76-3.9-3.92-3.9z"/>
						</g>
						<g id="&lt;Group&gt;">
							<path id="&lt;Compound Path&gt;" class="s1" d="m641.36 602.41h-28.54c-2.56 0-4.63 2.06-4.63 4.6v20.56c0 2.55 2.07 4.61 4.63 4.61h28.54c2.56 0 4.63-2.06 4.63-4.61v-20.56c0-2.54-2.07-4.6-4.63-4.6z"/>
						</g>
						<g id="&lt;Group&gt;">
							<path id="&lt;Compound Path&gt;" class="s1" d="m698.59 654.47h-34.99c-3.14 0-5.68 2.28-5.68 5.08v22.72c0 2.8 2.54 5.08 5.68 5.08h34.99c3.14 0 5.68-2.28 5.68-5.08v-22.72c0-2.8-2.54-5.08-5.68-5.08z"/>
						</g>
					</g>
				</g>
				<g id="&lt;Group&gt;">
					<g id="&lt;Group&gt;">
						<path id="&lt;Compound Path&gt;" class="s1" d="m691.81 506.11h-21.13c-1.89 0-3.43 1.54-3.43 3.43v15.3c0 1.89 1.54 3.42 3.43 3.42h21.13c1.9 0 3.43-1.53 3.43-3.42v-15.3c0-1.89-1.53-3.43-3.43-3.43z"/>
					</g>
					<g id="&lt;Group&gt;">
						<path id="&lt;Compound Path&gt;" class="s1" d="m733.39 506.11h-21.13c-1.89 0-3.43 1.54-3.43 3.43v15.3c0 1.89 1.54 3.42 3.43 3.42h21.13c1.9 0 3.43-1.53 3.43-3.42v-15.3c0-1.89-1.53-3.43-3.43-3.43z"/>
					</g>
					<g id="&lt;Group&gt;">
						<path id="&lt;Compound Path&gt;" class="s1" d="m616.43 536.83h-19.56c-1.75 0-3.17 1.31-3.17 2.94v13.13c0 1.63 1.42 2.94 3.17 2.94h19.56c1.75 0 3.17-1.31 3.17-2.94v-13.13c0-1.63-1.42-2.94-3.17-2.94z"/>
					</g>
					<g id="&lt;Group&gt;">
						<path id="&lt;Compound Path&gt;" class="s1" d="m657.59 568.8h-19.55c-1.75 0-3.17 1.39-3.17 3.1v13.86c0 1.71 1.42 3.1 3.17 3.1h19.55c1.75 0 3.17-1.39 3.17-3.1v-13.86c0-1.71-1.42-3.1-3.17-3.1z"/>
					</g>
					<g id="&lt;Group&gt;">
						<path id="&lt;Compound Path&gt;" class="s1" d="m618.53 569.21h-18.74c-1.68 0-3.04 1.34-3.04 2.98v13.28c0 1.64 1.36 2.97 3.04 2.97h18.74c1.68 0 3.04-1.33 3.04-2.97v-13.28c0-1.64-1.36-2.98-3.04-2.98z"/>
					</g>
					<g id="&lt;Group&gt;">
						<path id="&lt;Compound Path&gt;" class="s1" d="m759.7 604.92h-17.96c-1.6 0-2.91 1.27-2.91 2.85v12.72c0 1.57 1.31 2.84 2.91 2.84h17.96c1.61 0 2.91-1.27 2.91-2.84v-12.72c0-1.58-1.3-2.85-2.91-2.85z"/>
					</g>
					<g id="&lt;Group&gt;">
						<path id="&lt;Compound Path&gt;" class="s1" d="m734.07 643.57h-16.22c-1.45 0-2.63 1.39-2.63 3.11v13.88c0 1.71 1.18 3.1 2.63 3.1h16.22c1.45 0 2.63-1.39 2.63-3.1v-13.88c0-1.72-1.18-3.11-2.63-3.11z"/>
					</g>
					<g id="&lt;Group&gt;">
						<path id="&lt;Compound Path&gt;" class="s1" d="m734.07 673.66h-16.22c-1.45 0-2.63 1.39-2.63 3.11v13.87c0 1.72 1.18 3.11 2.63 3.11h16.22c1.45 0 2.63-1.39 2.63-3.11v-13.87c0-1.72-1.18-3.11-2.63-3.11z"/>
					</g>
					<g id="&lt;Group&gt;">
						<path id="&lt;Compound Path&gt;" class="s1" d="m858.25 467.11h-23.67c-2.11 0-3.83 1.42-3.83 3.16v14.13c0 1.75 1.72 3.16 3.83 3.16h23.67c2.11 0 3.83-1.41 3.83-3.16v-14.13c0-1.74-1.72-3.16-3.83-3.16z"/>
					</g>
					<g id="&lt;Group&gt;">
						<path id="&lt;Compound Path&gt;" class="s1" d="m858.6 497.9h-39.46c-3.54 0-6.4 2.59-6.4 5.79v25.9c0 3.2 2.86 5.8 6.4 5.8h39.46c3.54 0 6.4-2.6 6.4-5.8v-25.9c0-3.2-2.86-5.79-6.4-5.79z"/>
					</g>
					<g id="&lt;Group&gt;">
						<path id="&lt;Compound Path&gt;" class="s1" d="m945.15 545.71h-25.04c-2.25 0-4.06 1.8-4.06 4.03v18.01c0 2.22 1.81 4.03 4.06 4.03h25.04c2.24 0 4.05-1.81 4.05-4.03v-18.01c0-2.23-1.81-4.03-4.05-4.03z"/>
					</g>
					<g id="&lt;Group&gt;">
						<path id="&lt;Compound Path&gt;" class="s1" d="m841.46 585.62h-18.64c-1.67 0-3.02 1.42-3.02 3.17v14.16c0 1.75 1.35 3.17 3.02 3.17h18.64c1.67 0 3.02-1.42 3.02-3.17v-14.16c0-1.75-1.35-3.17-3.02-3.17z"/>
					</g>
					<g id="&lt;Group&gt;">
						<path id="&lt;Compound Path&gt;" class="s1" d="m897.07 620.25h-20.87c-1.87 0-3.38 1.42-3.38 3.18v14.24c0 1.76 1.51 3.19 3.38 3.19h20.87c1.87 0 3.38-1.43 3.38-3.19v-14.24c0-1.76-1.51-3.18-3.38-3.18z"/>
					</g>
					<g id="&lt;Group&gt;">
						<path id="&lt;Compound Path&gt;" class="s1" d="m935.67 620.93h-20.87c-1.87 0-3.38 1.43-3.38 3.19v14.23c0 1.76 1.51 3.19 3.38 3.19h20.87c1.87 0 3.38-1.43 3.38-3.19v-14.23c0-1.76-1.51-3.19-3.38-3.19z"/>
					</g>
				</g>
			</g>
		</g>
	</g>
</svg>